<svg width="153" height="33" viewBox="0 0 153 33" fill="none" xmlns="http://www.w3.org/2000/svg">
<g clip-path="url(#clip0_404_12)">
<path d="M134.006 8.02704H113.927C109.38 8.02704 105.695 11.6652 105.695 16.1532V21.7027C105.695 26.1906 109.38 29.8288 113.927 29.8288H134.006C138.552 29.8288 142.238 26.1906 142.238 21.7027V16.1532C142.238 11.6652 138.552 8.02704 134.006 8.02704Z" fill="#FD5100"/>
<path d="M0 24.4061H3.39331V5.4227H0V0H14.3724V5.4227H10.9791V12.098H21.8336V5.4227H18.4403V0H32.8127V5.4227H29.4194V24.4061H32.8127V29.8288H18.4403V24.4061H21.8336V17.9409H10.9791V24.4061H14.3724V29.8288H0V24.4061Z" fill="#FD5100"/>
<path d="M45.1089 7.84073C51.6345 7.84073 55.2848 12.2645 55.2848 18.2263C55.2848 18.9398 55.1161 20.3986 55.1161 20.3986H41.2497C41.7959 23.1535 44.0045 24.3625 46.3377 24.3625C49.5623 24.3625 52.4858 22.3211 52.4858 22.3211L55.1523 27.3276C55.1523 27.3276 51.6385 30.3362 45.7353 30.3362C37.9368 30.3362 33.7403 24.7906 33.7403 19.0706C33.7403 12.7679 38.0693 7.84866 45.1089 7.84866V7.84073ZM47.695 16.4346C47.695 14.7222 46.5465 13.2634 44.9402 13.2634C42.8199 13.2634 41.8039 14.7658 41.4264 16.4346H47.699H47.695Z" fill="#FD5100"/>
<path d="M57.8549 5.21658H54.8873V0H65.1957V21.4847C65.1957 23.5261 65.5772 24.2396 67.2277 24.2396C67.6975 24.2396 68.1192 24.196 68.1192 24.196V29.916C68.1192 29.916 67.1032 30.0389 65.9105 30.0389C62.0072 30.0389 57.8549 29.1193 57.8549 21.9049V5.21658Z" fill="#FD5100"/>
<path d="M71.1751 5.21658H68.2075V0H78.5159V21.4847C78.5159 23.5261 78.8974 24.2396 80.5479 24.2396C81.0177 24.2396 81.4393 24.196 81.4393 24.196V29.916C81.4393 29.916 80.4234 30.0389 79.2307 30.0389C75.3274 30.0389 71.1751 29.1193 71.1751 21.9049V5.21658Z" fill="#FD5100"/>
<path d="M145.37 0H153L152.321 20.6087H146.049L145.37 0ZM145.828 23.5737H152.522V29.8328H145.828V23.5737Z" fill="#FD5100"/>
<path d="M57.8549 5.21658H54.8873V0H65.1957V21.4847C65.1957 23.5261 65.5772 24.2396 67.2277 24.2396C67.6975 24.2396 68.1192 24.196 68.1192 24.196V29.916C68.1192 29.916 67.1032 30.0389 65.9105 30.0389C62.0072 30.0389 57.8549 29.1193 57.8549 21.9049V5.21658Z" fill="#FD5100"/>
<path d="M122.761 8.02704H102.683C98.1361 8.02704 94.4504 11.6652 94.4504 16.1532V21.7027C94.4504 26.1906 98.1361 29.8288 102.683 29.8288H122.761C127.308 29.8288 130.994 26.1906 130.994 21.7027V16.1532C130.994 11.6652 127.308 8.02704 122.761 8.02704Z" fill="#FD5100"/>
<path d="M122.761 8.02704C127.4 8.02704 130.994 11.5748 130.994 16.1532V21.7027C130.994 26.2811 127.4 29.8288 122.761 29.8288H102.683C98.0445 29.8288 94.4504 26.2811 94.4504 21.7027V16.1532C94.4504 11.5748 98.0445 8.02704 102.683 8.02704H122.761ZM122.761 4.85587H102.683C96.2655 4.85587 91.2378 9.81875 91.2378 16.1532V21.7027C91.2378 28.0371 96.2655 33 102.683 33H122.761C129.179 33 134.206 28.0371 134.206 21.7027V16.1532C134.206 9.81875 129.179 4.85587 122.761 4.85587Z" fill="white"/>
<path d="M111.517 8.02704H91.4386C86.892 8.02704 83.2063 11.6652 83.2063 16.1532V21.7027C83.2063 26.1906 86.892 29.8288 91.4386 29.8288H111.517C116.064 29.8288 119.75 26.1906 119.75 21.7027V16.1532C119.75 11.6652 116.064 8.02704 111.517 8.02704Z" fill="#FD5100"/>
<path d="M111.517 8.02704C116.156 8.02704 119.75 11.5748 119.75 16.1532V21.7027C119.75 26.2811 116.156 29.8288 111.517 29.8288H91.4386C86.8004 29.8288 83.2063 26.2811 83.2063 21.7027V16.1532C83.2063 11.5748 86.8004 8.02704 91.4386 8.02704H111.517ZM111.517 4.85587H91.4386C85.0214 4.85587 79.9937 9.81875 79.9937 16.1532V21.7027C79.9937 28.0371 85.0214 33 91.4386 33H111.517C117.935 33 122.962 28.0371 122.962 21.7027V16.1532C122.962 9.81875 117.935 4.85587 111.517 4.85587Z" fill="white"/>
<path d="M91.9606 20.1369C93.9123 20.1369 95.4945 18.5791 95.4945 16.6605C95.4945 14.742 93.9123 13.1841 91.9606 13.1841C90.009 13.1841 88.4268 14.742 88.4268 16.6605C88.4268 18.5791 90.009 20.1369 91.9606 20.1369Z" fill="white"/>
</g>
<defs>
<clipPath id="clip0_404_12">
<rect width="153" height="33" fill="white"/>
</clipPath>
</defs>
</svg>
