<svg width="86" height="97" viewBox="0 0 86 97" fill="none" xmlns="http://www.w3.org/2000/svg">
<path d="M65.76 33.328C65.4187 31.024 64.6507 28.9333 63.456 27.056C62.2614 25.0933 60.768 23.3867 58.976 21.936C57.184 20.4853 55.136 19.376 52.832 18.608C50.6133 17.7547 48.2667 17.328 45.792 17.328C41.2693 17.328 37.4294 18.224 34.272 20.016C31.1147 21.7227 28.5547 24.0693 26.592 27.056C24.6293 29.9573 23.1787 33.2853 22.24 37.04C21.3867 40.7947 20.96 44.6773 20.96 48.688C20.96 52.528 21.3867 56.2827 22.24 59.952C23.1787 63.536 24.6293 66.7787 26.592 69.68C28.5547 72.5813 31.1147 74.928 34.272 76.72C37.4294 78.4267 41.2693 79.28 45.792 79.28C51.936 79.28 56.7147 77.4027 60.128 73.648C63.6267 69.8933 65.76 64.944 66.528 58.8H85.984C85.472 64.5173 84.1494 69.68 82.016 74.288C79.8827 78.896 77.0667 82.8213 73.568 86.064C70.0693 89.3067 65.9734 91.7813 61.28 93.488C56.5867 95.1947 51.424 96.048 45.792 96.048C38.7947 96.048 32.48 94.8533 26.848 92.464C21.3013 89.9893 16.608 86.6187 12.768 82.352C8.92801 78.0853 5.98401 73.0933 3.93601 67.376C1.88801 61.5733 0.864014 55.344 0.864014 48.688C0.864014 41.8613 1.88801 35.5467 3.93601 29.744C5.98401 23.856 8.92801 18.736 12.768 14.384C16.608 10.032 21.3013 6.61867 26.848 4.144C32.48 1.66934 38.7947 0.432007 45.792 0.432007C50.8267 0.432007 55.5627 1.15734 60 2.608C64.5227 4.05867 68.5334 6.192 72.032 9.008C75.616 11.7387 78.56 15.152 80.864 19.248C83.168 23.344 84.6187 28.0373 85.216 33.328H65.76Z" fill="black"/>
</svg>
