<svg width="80" height="92" viewBox="0 0 80 92" fill="none" xmlns="http://www.w3.org/2000/svg">
<path d="M20.393 41.952H42.409C47.017 41.952 50.473 40.928 52.777 38.88C55.081 36.832 56.233 33.504 56.233 28.896C56.233 24.4587 55.081 21.2587 52.777 19.296C50.473 17.248 47.017 16.224 42.409 16.224H20.393V41.952ZM0.296997 0.608002H49.577C53.673 0.608002 57.3423 1.29067 60.585 2.65601C63.913 3.936 66.729 5.728 69.033 8.03201C71.4223 10.336 73.2143 13.024 74.409 16.096C75.689 19.0827 76.329 22.3253 76.329 25.824C76.329 31.2 75.177 35.8507 72.873 39.776C70.6543 43.7013 66.985 46.688 61.865 48.736V48.992C64.3397 49.6747 66.3877 50.7413 68.009 52.192C69.6303 53.5573 70.953 55.2213 71.977 57.184C73.001 59.0613 73.7263 61.152 74.153 63.456C74.665 65.76 75.0063 68.064 75.177 70.368C75.2623 71.8187 75.3477 73.5253 75.433 75.488C75.5183 77.4507 75.6463 79.456 75.817 81.504C76.073 83.552 76.4143 85.5147 76.841 87.392C77.353 89.184 78.0783 90.72 79.017 92H58.921C57.8117 89.0987 57.129 85.6427 56.873 81.632C56.617 77.6213 56.233 73.7813 55.721 70.112C55.0383 65.3333 53.5877 61.8347 51.369 59.616C49.1503 57.3973 45.5237 56.288 40.489 56.288H20.393V92H0.296997V0.608002Z" fill="black"/>
</svg>
