<svg width="91" height="97" viewBox="0 0 91 97" fill="none" xmlns="http://www.w3.org/2000/svg">
<path d="M20.985 48.688C20.985 52.528 21.4117 56.2827 22.265 59.952C23.2037 63.536 24.6543 66.7787 26.617 69.68C28.5797 72.5813 31.1397 74.928 34.297 76.72C37.4543 78.4267 41.2943 79.28 45.817 79.28C50.3397 79.28 54.1797 78.4267 57.337 76.72C60.4943 74.928 63.0543 72.5813 65.017 69.68C66.9797 66.7787 68.3877 63.536 69.241 59.952C70.1797 56.2827 70.649 52.528 70.649 48.688C70.649 44.6773 70.1797 40.7947 69.241 37.04C68.3877 33.2853 66.9797 29.9573 65.017 27.056C63.0543 24.0693 60.4943 21.7227 57.337 20.016C54.1797 18.224 50.3397 17.328 45.817 17.328C41.2943 17.328 37.4543 18.224 34.297 20.016C31.1397 21.7227 28.5797 24.0693 26.617 27.056C24.6543 29.9573 23.2037 33.2853 22.265 37.04C21.4117 40.7947 20.985 44.6773 20.985 48.688ZM0.889008 48.688C0.889008 41.8613 1.913 35.5467 3.961 29.744C6.009 23.856 8.953 18.736 12.793 14.384C16.633 10.032 21.3263 6.61867 26.873 4.144C32.505 1.66934 38.8197 0.432007 45.817 0.432007C52.8997 0.432007 59.2143 1.66934 64.761 4.144C70.3077 6.61867 75.001 10.032 78.841 14.384C82.681 18.736 85.625 23.856 87.673 29.744C89.721 35.5467 90.745 41.8613 90.745 48.688C90.745 55.344 89.721 61.5733 87.673 67.376C85.625 73.0933 82.681 78.0853 78.841 82.352C75.001 86.6187 70.3077 89.9893 64.761 92.464C59.2143 94.8533 52.8997 96.048 45.817 96.048C38.8197 96.048 32.505 94.8533 26.873 92.464C21.3263 89.9893 16.633 86.6187 12.793 82.352C8.953 78.0853 6.009 73.0933 3.961 67.376C1.913 61.5733 0.889008 55.344 0.889008 48.688Z" fill="black"/>
</svg>
