<svg width="44" height="88" viewBox="0 0 44 88" fill="none" xmlns="http://www.w3.org/2000/svg">
<path d="M29.762 20.824H43.074V32.984H29.762V65.752C29.762 68.824 30.274 70.872 31.298 71.896C32.322 72.92 34.37 73.432 37.442 73.432C38.466 73.432 39.4473 73.3893 40.386 73.304C41.3247 73.2187 42.2207 73.0907 43.074 72.92V87C41.538 87.256 39.8313 87.4267 37.954 87.512C36.0767 87.5973 34.242 87.64 32.45 87.64C29.634 87.64 26.946 87.4267 24.386 87C21.9113 86.6587 19.6927 85.9334 17.73 84.824C15.8527 83.7147 14.3593 82.136 13.25 80.088C12.1407 78.04 11.586 75.352 11.586 72.024V32.984H0.578003V20.824H11.586V0.984009H29.762V20.824Z" fill="black"/>
</svg>
