<svg width="63" height="92" viewBox="0 0 63 92" fill="none" xmlns="http://www.w3.org/2000/svg">
<path d="M0.00201416 0.608002H18.178V35.04H18.562C20.866 31.2 23.81 28.4267 27.394 26.72C30.978 24.928 34.4767 24.032 37.89 24.032C42.754 24.032 46.722 24.7147 49.794 26.08C52.9514 27.36 55.426 29.1947 57.218 31.584C59.01 33.888 60.2473 36.7467 60.93 40.16C61.698 43.488 62.082 47.2 62.082 51.296V92H43.906V54.624C43.906 49.1627 43.0527 45.1093 41.346 42.464C39.6393 39.7333 36.61 38.368 32.258 38.368C27.3087 38.368 23.7247 39.8613 21.506 42.848C19.2873 45.7493 18.178 50.5707 18.178 57.312V92H0.00201416V0.608002Z" fill="black"/>
</svg>
