<svg width="90" height="97" viewBox="0 0 90 97" fill="none" xmlns="http://www.w3.org/2000/svg">
<path d="M20.115 48.688C20.115 52.528 20.5417 56.2827 21.395 59.952C22.3337 63.536 23.7843 66.7787 25.747 69.68C27.7097 72.5813 30.2697 74.928 33.427 76.72C36.5843 78.4267 40.4243 79.28 44.947 79.28C49.4697 79.28 53.3097 78.4267 56.467 76.72C59.6243 74.928 62.1843 72.5813 64.147 69.68C66.1097 66.7787 67.5177 63.536 68.371 59.952C69.3097 56.2827 69.779 52.528 69.779 48.688C69.779 44.6773 69.3097 40.7947 68.371 37.04C67.5177 33.2853 66.1097 29.9573 64.147 27.056C62.1843 24.0693 59.6243 21.7227 56.467 20.016C53.3097 18.224 49.4697 17.328 44.947 17.328C40.4243 17.328 36.5843 18.224 33.427 20.016C30.2697 21.7227 27.7097 24.0693 25.747 27.056C23.7843 29.9573 22.3337 33.2853 21.395 37.04C20.5417 40.7947 20.115 44.6773 20.115 48.688ZM0.0189819 48.688C0.0189819 41.8613 1.04298 35.5467 3.09098 29.744C5.13898 23.856 8.08299 18.736 11.923 14.384C15.763 10.032 20.4563 6.61867 26.003 4.144C31.635 1.66934 37.9497 0.432007 44.947 0.432007C52.0297 0.432007 58.3443 1.66934 63.891 4.144C69.4376 6.61867 74.131 10.032 77.971 14.384C81.811 18.736 84.755 23.856 86.803 29.744C88.851 35.5467 89.875 41.8613 89.875 48.688C89.875 55.344 88.851 61.5733 86.803 67.376C84.755 73.0933 81.811 78.0853 77.971 82.352C74.131 86.6187 69.4376 89.9893 63.891 92.464C58.3443 94.8533 52.0297 96.048 44.947 96.048C37.9497 96.048 31.635 94.8533 26.003 92.464C20.4563 89.9893 15.763 86.6187 11.923 82.352C8.08299 78.0853 5.13898 73.0933 3.09098 67.376C1.04298 61.5733 0.0189819 55.344 0.0189819 48.688Z" fill="black"/>
</svg>
