<svg width="66" height="70" viewBox="0 0 66 70" fill="none" xmlns="http://www.w3.org/2000/svg">
<path d="M47.398 25.12C46.2033 17.5253 41.7233 13.728 33.958 13.728C31.0567 13.728 28.6247 14.4107 26.662 15.776C24.6993 17.056 23.078 18.7626 21.798 20.896C20.6033 22.944 19.75 25.248 19.238 27.808C18.726 30.2826 18.47 32.7573 18.47 35.232C18.47 37.6213 18.726 40.0533 19.238 42.528C19.75 45.0026 20.5606 47.264 21.67 49.312C22.8646 51.2747 24.4433 52.896 26.406 54.176C28.3687 55.456 30.758 56.096 33.574 56.096C37.926 56.096 41.254 54.9013 43.558 52.512C45.9473 50.0373 47.4407 46.752 48.038 42.656H65.574C64.3793 51.4453 60.966 58.144 55.334 62.752C49.702 67.36 42.4913 69.664 33.702 69.664C28.7527 69.664 24.1873 68.8533 20.006 67.232C15.91 65.5253 12.4113 63.1786 9.50998 60.192C6.60865 57.2053 4.34732 53.664 2.72598 49.568C1.10465 45.3866 0.294006 40.8213 0.294006 35.872C0.294006 30.752 1.01933 26.016 2.47 21.664C4.006 17.2267 6.22467 13.4293 9.12601 10.272C12.0273 7.02932 15.5687 4.51199 19.75 2.71999C23.9313 0.927989 28.71 0.0319824 34.086 0.0319824C38.0113 0.0319824 41.766 0.543981 45.35 1.56798C49.0193 2.59198 52.262 4.17065 55.078 6.30399C57.9793 8.35198 60.326 10.9547 62.118 14.112C63.91 17.184 64.934 20.8533 65.19 25.12H47.398Z" fill="black"/>
</svg>
