<svg width="69" height="70" viewBox="0 0 69 70" fill="none" xmlns="http://www.w3.org/2000/svg">
<path d="M18.25 34.976C18.25 37.6213 18.506 40.224 19.018 42.784C19.53 45.2586 20.3833 47.52 21.578 49.568C22.858 51.5306 24.522 53.1093 26.57 54.304C28.618 55.4986 31.178 56.096 34.25 56.096C37.322 56.096 39.882 55.4986 41.93 54.304C44.0633 53.1093 45.7273 51.5306 46.922 49.568C48.202 47.52 49.098 45.2586 49.61 42.784C50.122 40.224 50.378 37.6213 50.378 34.976C50.378 32.3307 50.122 29.728 49.61 27.168C49.098 24.608 48.202 22.3467 46.922 20.384C45.7273 18.4213 44.0633 16.8427 41.93 15.648C39.882 14.368 37.322 13.728 34.25 13.728C31.178 13.728 28.618 14.368 26.57 15.648C24.522 16.8427 22.858 18.4213 21.578 20.384C20.3833 22.3467 19.53 24.608 19.018 27.168C18.506 29.728 18.25 32.3307 18.25 34.976ZM0.0740051 34.976C0.0740051 29.6853 0.884648 24.9067 2.50598 20.64C4.12731 16.288 6.43133 12.6186 9.418 9.63197C12.4047 6.55997 15.9886 4.21332 20.17 2.59198C24.3513 0.885315 29.0447 0.0319824 34.25 0.0319824C39.4553 0.0319824 44.1487 0.885315 48.33 2.59198C52.5967 4.21332 56.2233 6.55997 59.21 9.63197C62.1967 12.6186 64.5007 16.288 66.122 20.64C67.7433 24.9067 68.554 29.6853 68.554 34.976C68.554 40.2667 67.7433 45.0453 66.122 49.312C64.5007 53.5787 62.1967 57.248 59.21 60.32C56.2233 63.3067 52.5967 65.6106 48.33 67.232C44.1487 68.8533 39.4553 69.664 34.25 69.664C29.0447 69.664 24.3513 68.8533 20.17 67.232C15.9886 65.6106 12.4047 63.3067 9.418 60.32C6.43133 57.248 4.12731 53.5787 2.50598 49.312C0.884648 45.0453 0.0740051 40.2667 0.0740051 34.976Z" fill="black"/>
</svg>
