<svg width="63" height="68" viewBox="0 0 63 68" fill="none" xmlns="http://www.w3.org/2000/svg">
<path d="M0.651978 1.82399H17.932V11.04H18.316C20.62 7.19999 23.6067 4.42666 27.276 2.71999C30.9453 0.927989 34.7 0.0319824 38.54 0.0319824C43.404 0.0319824 47.372 0.71464 50.444 2.07997C53.6013 3.35998 56.076 5.19465 57.868 7.58398C59.66 9.88799 60.8973 12.7467 61.58 16.16C62.348 19.488 62.732 23.2 62.732 27.296V68H44.556V30.624C44.556 25.1626 43.7026 21.1093 41.996 18.464C40.2893 15.7333 37.26 14.368 32.908 14.368C27.9587 14.368 24.3747 15.8613 22.156 18.848C19.9373 21.7493 18.828 26.5707 18.828 33.312V68H0.651978V1.82399Z" fill="black"/>
</svg>
