<svg width="62" height="70" viewBox="0 0 62 70" fill="none" xmlns="http://www.w3.org/2000/svg">
<path d="M17.887 46.496C17.887 48.4587 18.271 50.1653 19.039 51.616C19.8923 52.9813 20.959 54.1333 22.239 55.072C23.519 55.9253 24.9697 56.5653 26.591 56.992C28.2977 57.4187 30.047 57.632 31.839 57.632C33.119 57.632 34.4417 57.504 35.807 57.248C37.2577 56.9066 38.5377 56.4373 39.647 55.84C40.8417 55.1573 41.823 54.304 42.591 53.28C43.359 52.1706 43.743 50.8053 43.743 49.184C43.743 46.4533 41.9083 44.4053 38.239 43.04C34.655 41.6747 29.6203 40.3093 23.135 38.944C20.4897 38.3467 17.887 37.664 15.327 36.896C12.8524 36.0426 10.6337 34.976 8.67102 33.696C6.70835 32.3306 5.12966 30.6667 3.935 28.704C2.74033 26.656 2.14301 24.1813 2.14301 21.28C2.14301 17.0133 2.95368 13.5146 4.57501 10.784C6.28168 8.05331 8.50035 5.91999 11.231 4.38399C13.9617 2.76265 17.0337 1.65332 20.447 1.05598C23.8604 0.373316 27.359 0.0319824 30.943 0.0319824C34.527 0.0319824 37.983 0.373316 41.311 1.05598C44.7244 1.73865 47.7537 2.89064 50.399 4.51198C53.0444 6.13331 55.2203 8.30933 56.927 11.04C58.719 13.6853 59.7857 17.056 60.127 21.152H42.847C42.591 17.6533 41.2684 15.3067 38.879 14.112C36.4897 12.832 33.6737 12.192 30.431 12.192C29.407 12.192 28.2977 12.2773 27.103 12.448C25.9084 12.5333 24.799 12.7893 23.775 13.216C22.8364 13.6427 22.0257 14.2826 21.343 15.136C20.6604 15.904 20.319 16.9706 20.319 18.336C20.319 19.9573 20.9164 21.28 22.111 22.304C23.3057 23.328 24.8417 24.1813 26.719 24.864C28.6817 25.4613 30.9003 26.016 33.375 26.528C35.8497 27.04 38.367 27.5946 40.927 28.192C43.5723 28.7893 46.1323 29.5147 48.607 30.368C51.167 31.2213 53.4283 32.3733 55.391 33.824C57.3537 35.1893 58.9323 36.9386 60.127 39.072C61.3217 41.12 61.919 43.68 61.919 46.752C61.919 51.104 61.023 54.7733 59.231 57.76C57.5244 60.6613 55.263 63.008 52.447 64.8C49.631 66.592 46.3883 67.8293 42.719 68.512C39.135 69.28 35.4657 69.664 31.711 69.664C27.871 69.664 24.1164 69.28 20.447 68.512C16.7777 67.744 13.4923 66.464 10.591 64.672C7.775 62.88 5.42836 60.5333 3.55103 57.632C1.75903 54.6453 0.777661 50.9333 0.606995 46.496H17.887Z" fill="black"/>
</svg>
