<svg width="86" height="97" viewBox="0 0 86 97" fill="none" xmlns="http://www.w3.org/2000/svg">
<path d="M65.41 33.328C65.0687 31.024 64.3007 28.9333 63.106 27.056C61.9114 25.0933 60.418 23.3867 58.626 21.936C56.834 20.4853 54.786 19.376 52.482 18.608C50.2634 17.7547 47.9167 17.328 45.442 17.328C40.9194 17.328 37.0794 18.224 33.922 20.016C30.7647 21.7227 28.2047 24.0693 26.242 27.056C24.2794 29.9573 22.8287 33.2853 21.89 37.04C21.0367 40.7947 20.61 44.6773 20.61 48.688C20.61 52.528 21.0367 56.2827 21.89 59.952C22.8287 63.536 24.2794 66.7787 26.242 69.68C28.2047 72.5813 30.7647 74.928 33.922 76.72C37.0794 78.4267 40.9194 79.28 45.442 79.28C51.586 79.28 56.3647 77.4027 59.778 73.648C63.2767 69.8933 65.41 64.944 66.178 58.8H85.634C85.122 64.5173 83.7994 69.68 81.666 74.288C79.5327 78.896 76.7167 82.8213 73.218 86.064C69.7194 89.3067 65.6234 91.7813 60.93 93.488C56.2367 95.1947 51.074 96.048 45.442 96.048C38.4447 96.048 32.13 94.8533 26.498 92.464C20.9513 89.9893 16.258 86.6187 12.418 82.352C8.57803 78.0853 5.63403 73.0933 3.58603 67.376C1.53803 61.5733 0.514038 55.344 0.514038 48.688C0.514038 41.8613 1.53803 35.5467 3.58603 29.744C5.63403 23.856 8.57803 18.736 12.418 14.384C16.258 10.032 20.9513 6.61867 26.498 4.144C32.13 1.66934 38.4447 0.432007 45.442 0.432007C50.4767 0.432007 55.2127 1.15734 59.6501 2.608C64.1727 4.05867 68.1834 6.192 71.682 9.008C75.266 11.7387 78.21 15.152 80.514 19.248C82.818 23.344 84.2687 28.0373 84.866 33.328H65.41Z" fill="black"/>
</svg>
